<?xml version="1.0"?>
<svg xmlns="http://www.w3.org/2000/svg" width="512" height="512" viewBox="0 0 512 512"><g><path d="M499.18,176.66,424,144.08V16a8,8,0,0,0-8-8H96a8,8,0,0,0-8,8V144.08L12.82,176.66A7.994,7.994,0,0,0,8,184V488a16.021,16.021,0,0,0,16,16H488a16.021,16.021,0,0,0,16-16V184A7.994,7.994,0,0,0,499.18,176.66ZM104,24H408V269.41L256,335.28,104,269.41ZM24,189.25l64-27.73V262.48L24,234.75ZM24,488V252.19l125.08,54.19L35.57,488Zm30.43,0L163.92,312.82l88.9,38.52a7.991,7.991,0,0,0,6.36,0l88.9-38.52L457.57,488ZM488,488H476.43L362.92,306.38,488,252.19Zm0-253.25-64,27.73V161.52l64,27.73Z"/><path d="M88,480h80a8,8,0,0,0,0-16H88a8,8,0,0,0,0,16Z"/><path d="M192,480h8a8,8,0,0,0,0-16h-8a8,8,0,0,0,0,16Z"/><path d="M176.8,177.567l22.63,22.63a8,8,0,0,0,11.314,0L256,154.943,301.253,200.2a8,8,0,0,0,11.314,0l22.63-22.63a8,8,0,0,0,0-11.314L289.943,121,335.2,75.747a8,8,0,0,0,0-11.314L312.567,41.8a8,8,0,0,0-11.314,0L256,87.057,210.747,41.8a8,8,0,0,0-11.314,0L176.8,64.433a8,8,0,0,0,0,11.314L222.057,121,176.8,166.253A8,8,0,0,0,176.8,177.567Zm62.224-50.91a8,8,0,0,0,0-11.314L193.773,70.09,205.09,58.773l45.253,45.254a8,8,0,0,0,11.314,0L306.91,58.773,318.227,70.09l-45.254,45.253a8,8,0,0,0,0,11.314l45.254,45.253L306.91,183.227l-45.253-45.254a8,8,0,0,0-11.314,0L205.09,183.227,193.773,171.91Z"/><path d="M224,256.069V224c0-.02,0-.033,0-.052A8,8,0,0,0,209.753,219l-32,40A8,8,0,0,0,184,272h24v8a8,8,0,0,0,16,0v-8.069a7.993,7.993,0,0,0,0-15.862ZM200.645,256,208,246.806V256Z"/><path d="M328,256.07V223.95A8,8,0,0,0,313.75,219l-32,40A8,8,0,0,0,288,272h24v8a8,8,0,0,0,16,0v-8.07a7.992,7.992,0,0,0,0-15.86ZM312,256h-7.36l7.36-9.19Z"/><path d="M272,216H240a8,8,0,0,0-8,8v56a8,8,0,0,0,8,8h32a8,8,0,0,0,8-8V224A8,8,0,0,0,272,216Zm-8,56H248V232h16Z"/></g></svg>
