<svg id="_x31__x2C_5" enable-background="new 0 0 24 24" height="512" viewBox="0 0 24 24" width="512" xmlns="http://www.w3.org/2000/svg"><path d="m18.25 14.3c0 .52-.43.95-.96.95h-10.58c-.53 0-.96-.43-.96-.95 0-.19.05-.36.14-.5l5.29-8.59c.17-.28.47-.46.82-.46s.65.18.82.46l5.29 8.59c.09.14.14.31.14.5z" fill="#f44336"/><path d="m17.288 16h-10.576c-.944 0-1.712-.765-1.712-1.704 0-.335.094-.651.272-.916l5.271-8.565c.295-.499.855-.815 1.457-.815s1.162.316 1.463.827l5.281 8.578c.162.24.256.556.256.891 0 .939-.768 1.704-1.712 1.704zm-5.288-10.5c-.088 0-.147.048-.172.089l-5.328 8.707c0 .11.097.204.212.204h10.576c.115 0 .212-.094.212-.204 0-.033-.006-.063-.017-.078l-5.305-8.616c-.031-.054-.09-.102-.178-.102z"/><path d="m12 22.044c-.414 0-.75-.336-.75-.75s.336-.75.75-.75c5.25 0 9.521-4.271 9.521-9.522 0-.414.336-.75.75-.75s.75.336.75.75c0 6.078-4.944 11.022-11.021 11.022z"/><path d="m21.68 8.37c-.311 0-.601-.194-.708-.504-1.324-3.807-4.929-6.366-8.972-6.366-2.169 0-4.198.71-5.87 2.054-.322.261-.795.21-1.054-.114-.26-.323-.209-.795.114-1.054 1.941-1.561 4.295-2.386 6.81-2.386 4.682 0 8.855 2.963 10.388 7.374.137.392-.07.818-.462.954-.081.028-.164.042-.246.042z"/><path d="m8.58 21.45c-.082 0-.166-.014-.248-.042-4.397-1.54-7.352-5.715-7.352-10.388 0-2.228.657-4.359 1.902-6.165.234-.341.702-.428 1.043-.191.341.234.427.702.191 1.043-1.069 1.553-1.636 3.391-1.636 5.313 0 4.038 2.551 7.644 6.348 8.973.391.137.597.564.46.956-.108.308-.398.501-.708.501z"/><path d="m13.468 24c-.191 0-.384-.073-.53-.22l-1.957-1.956c-.141-.141-.22-.331-.22-.53s.079-.39.22-.53l1.957-1.957c.293-.293.768-.293 1.061 0s.293.768 0 1.061l-1.427 1.427 1.427 1.426c.293.293.293.768 0 1.061-.147.145-.339.218-.531.218z"/><path d="m4.345 8.348c-.332 0-.635-.221-.725-.556l-.565-2.11-2.11.565c-.406.112-.812-.131-.919-.53-.107-.4.13-.812.53-.919l2.835-.76c.409-.107.811.132.919.53l.76 2.835c.107.4-.13.812-.53.919-.066.018-.132.026-.195.026z"/><path d="m21.781 8.933c-.127 0-.256-.032-.374-.101l-2.541-1.467c-.358-.207-.481-.666-.274-1.024.206-.357.665-.483 1.024-.274l1.892 1.092 1.093-1.892c.206-.358.665-.482 1.024-.274.358.207.481.666.274 1.024l-1.468 2.541c-.138.24-.39.375-.65.375z"/><path d="m12 11.5c-.414 0-.75-.336-.75-.75v-2c0-.414.336-.75.75-.75s.75.336.75.75v2c0 .414-.336.75-.75.75z"/><circle cx="12" cy="13.25" r=".75"/></svg>